<svg id="Layer_1" data-name="Layer 1" xmlns="http://www.w3.org/2000/svg" viewBox="0 0 173.79 72.4"><defs><style>.cls-1{fill:#e20613;}.cls-2{fill:#1d1d1b;}</style></defs><path class="cls-1" d="M78.73,52.64H76.64V45.25H72.5v-1.6H82.88v1.6H78.73Z"/><path class="cls-1" d="M85.44,43.65h9.21v1.53H87.53v2h4.15v1.53H87.53V51h7.2v1.69H85.44Z"/><path class="cls-1" d="M100.51,45.25V51h5.64V49l2.1.43v1.07c0,1.69-.54,2.12-2.24,2.12h-5.36c-1.7,0-2.24-.43-2.24-2.12V45.78c0-1.7.54-2.13,2.24-2.13H106c1.7,0,2.24.43,2.24,2.13v.85l-2.1.33V45.25Z"/><path class="cls-1" d="M112.57,43.65h2.09v3.49h6.54V43.65h2.11v9H121.2V48.77h-6.54v3.87h-2.09Z"/><path class="cls-1" d="M127.9,43.65h1.43l6.33,5.3a7.85,7.85,0,0,1,1,1c-.05-.75-.08-1.28-.08-1.56V43.65h1.88v9h-1.43l-6.61-5.56a7.31,7.31,0,0,1-.75-.73c.07.7.09,1.17.09,1.43v4.86H127.9Z"/><path class="cls-1" d="M143.07,43.65h2.09v9h-2.09Z"/><path class="cls-1" d="M149.76,43.65H159v1.53h-7.12v2H156v1.53h-4.15V51h7.2v1.69h-9.29Z"/><path class="cls-1" d="M162.93,43.65H165V47.4l5-3.75h3l-6,4.24,6.7,4.75h-3.37l-5.38-4v4h-2.11Z"/><path class="cls-2" d="M46,48.46C46,63.87,37.6,72.4,22.83,72.4,9.16,72.4.55,64.66,0,50.91H15.64c.4,4.58,3,7.11,7.27,7.11,4.5,0,7-3.24,7-9.08V17.57H46Z"/><path class="cls-2" d="M66.13,13.82v39.9h-16V13.82H29.86V0H66.13Z"/><rect class="cls-1" x="70.32" width="17.31" height="13.76"/><path class="cls-2" d="M71,32V28.24l4.22-.8v5.41h8.25V18.21h4.19V32c0,3.39-1.08,4.26-4.47,4.26H75.44C72.05,36.24,71,35.37,71,32Z"/><path class="cls-2" d="M100.69,32.85h12V18.21h4.19V32c0,3.39-1.08,4.26-4.47,4.26H101c-3.39,0-4.47-.87-4.47-4.26V18.21h4.19Z"/><path class="cls-2" d="M123.15,18.21h4.22v7.51l10-7.51h6.07L131.5,26.7l13.41,9.54h-6.74l-10.8-7.93v7.93h-4.22Z"/><path class="cls-2" d="M154.76,18.21H168c3.39,0,4.47.88,4.47,4.27V32c0,3.39-1.08,4.26-4.47,4.26H154.76c-3.39,0-4.48-.87-4.48-4.26v-9.5C150.28,19.09,151.37,18.21,154.76,18.21Zm13.55,14.64V21.43H154.48V32.85Z"/></svg>